# xmcd
#
# Track frame offsets:
#	150
#	21685
#	41511
#	58225
#	73274
#	104664
#	126641
#	157783
#	172804
#	188248
#	206899
#
# Disc length: 2929 seconds
#
# Revision: 1
# Processed by: cddbd v1.5.1PL0 Copyright (c) Steve Scherf et al.
# Submitted via: audiograbber 1.80
#
DISCID=aa0b6f0b
DTITLE=Claudio Gabis Y La Seleccion - Convocatoria
DYEAR=1900
DGENRE=
TTITLE0=Jugo De Tomate - Charly Garcia
TTITLE1=Desconfio - Ricardo Soule
TTITLE2=No Hay Tiempo De Mas - Ricardo Mollo
TTITLE3=Rock De La Mujer Perdida - Andres Calamaro
TTITLE4=Blues De Un Domingo Lluvioso - Alejandro Medina
TTITLE5=El Vuelo De Tu Falda - Pedro Guerra
TTITLE6=Malas Condiciones - Leon Gieco
TTITLE7=Negro Como Un Blues - Joaquin Sabina
TTITLE8=Blues Del Corazon Destrozado - Instrumental
TTITLE9=Estuve En La Tierra - Coque Malla
TTITLE10=Avenida Rivadavia - Horacio Fontova
EXTD=2005 Nandosound
EXTT0=
EXTT1=
EXTT2=
EXTT3=
EXTT4=
EXTT5=
EXTT6=
EXTT7=
EXTT8=
EXTT9=
EXTT10=
PLAYORDER=
